<svg width="538.36" height="220.82" version="1.1" viewBox="0 0 504.71 207.02" xmlns="http://www.w3.org/2000/svg"><g transform="translate(-134.29 -633.36)"><g transform="matrix(1.4005 0 0 1.4005 -283.99 9168.3)"><path d="m602.75-6011.9v62.188h14.906v-29.094l21.25 29.094h18.781l-25.219-31.688 22.344-30.469h-17.25l-19.906 29.219v-29.25z"/><path d="m399.78-6032.8v83.125h14.969v-31.656c0-12.838 3.9937-19.062 12.594-19.062 8.7248 0 12.719 5.8505 12.719 18.938v31.781h14.938v-35.156c0-7.4783-.7554-11.949-2.625-15.938-3.7392-7.7276-12.838-13.344-21.562-13.344-6.2319 0-11.451 2.106-16.062 6.3437v-25.031z"/><path d="m372.31-6014.1c-11.591 0-20.812 8.5935-20.812 19.312 0 5.3594 1.8858 9.8535 5.625 13.219 3.2406 2.8667 4.6143 3.4756 11.719 5.8438 8.3508 2.742 10.594 4.5105 10.594 8.125s-2.8862 6.3437-6.75 6.3437c-4.3624 0-6.7231-2.36-8.2188-7.9687h-15.219c.4986 5.1102 1.0043 7.1024 2.5 10.094 3.4899 6.8552 11.337 11.594 19.812 11.594 12.588 0 22.812-9.8472 22.812-21.812 0-5.6088-1.8553-9.9785-5.8438-13.344-2.4927-2.1188-5.9846-3.5988-11.469-5.3437l-4.25-1.375c-4.8609-1.6203-6.3438-2.8833-6.3438-5.75 0-2.9914 2.4782-5.2188 5.7188-5.2188 3.116 0 5.2518 1.8539 5.875 5.3438h14.688c-.4986-10.844-9.3447-19.062-20.438-19.062z"/><path d="m491.97-6014.1c-17.699 0-31.156 14.21-31.156 32.906 0 19.319 12.832 33.656 30.281 33.656 7.7276 0 17.201-4.2347 21.812-9.7188v7.5938h13.719v-62.312h-13.719v7.8437c-4.6116-5.858-13.085-9.9687-20.938-9.9687zm1.2812 13.719c.32212-.017.64157 0 .96875 0 10.594 0 18.312 8.2197 18.312 19.313 0 11.467-7.7182 19.812-18.312 19.812-10.345 0-18.438-8.4684-18.438-19.187 0-10.988 7.483-19.423 17.469-19.938z"/><path d="m565.63-6014.1c-18.197 0-33.031 14.834-33.031 33.031 0 18.447 14.959 33.531 33.156 33.531 5.9827 0 12.703-2.0094 17.938-5.25 6.3566-3.9885 10.227-8.9614 13.219-17.188h-16.812c-3.4898 5.7334-8.235 8.7187-13.844 8.7187-10.844 0-18.688-8.345-18.688-19.562 0-11.342 7.5928-19.562 18.062-19.562 6.6058 0 10.73 2.6126 14.469 9.0938h16.812c-1.7449-5.4841-2.852-7.4785-5.7187-10.844-6.3566-7.6029-15.716-11.969-25.562-11.969z"/></g><path d="m192.2 747.28v21.008h11.686c.94981-7.0477 4.3349-13.356 9.3224-18.163v-2.8449z" style="fill:#070"/><path d="m192.2 775.29v21.008h21.008v-1.7944c-.0479-.042-.0831-.0887-.13124-.13123a4.6923 4.6923 0 0 1-.0437-.0437c-5.4874-4.9385-8.6293-11.601-9.2786-19.039h-11.555z" style="fill:#070"/><path d="m192.2 803.3v21.008h12.211c-2.2468-4.5183-3.2271-8.4153-3.939-15.712-.26362-2.6061-.27429-2.5684-.43674-5.3125-3.0881-.005-3.8924.012-7.8353.0167z" style="fill:#070"/><rect x="332.25" y="719.27" width="21.008" height="21.008" style="fill:#070"/><rect x="304.24" y="691.26" width="21.008" height="21.008" style="fill:#070"/><rect x="136.17" y="719.27" width="21.008" height="21.008" style="fill:#070"/><rect x="248.21" y="635.24" width="21.008" height="21.008" style="fill:#070"/><rect x="276.22" y="663.25" width="21.008" height="21.008" style="fill:#070"/><rect x="304.24" y="719.27" width="21.008" height="21.008" style="fill:#070"/><rect x="276.22" y="691.26" width="21.008" height="21.008" style="fill:#070"/><rect x="248.21" y="663.25" width="21.008" height="21.008" style="fill:#070"/><rect x="220.2" y="635.24" width="21.008" height="21.008" style="fill:#070"/><rect x="192.19" y="663.25" width="21.008" height="21.008" style="fill:#070"/><rect x="164.18" y="691.26" width="21.008" height="21.008" style="fill:#070"/><rect x="164.18" y="747.28" width="21.008" height="21.008" style="fill:#070"/><rect x="164.18" y="775.29" width="21.008" height="21.008" style="fill:#070"/><rect x="164.18" y="803.3" width="21.008" height="21.008" style="fill:#070"/><rect x="164.18" y="719.27" width="21.008" height="21.008" style="fill:#070"/><rect x="192.19" y="691.26" width="21.008" height="21.008" style="fill:#070"/><rect x="220.2" y="663.25" width="21.008" height="21.008" style="fill:#070"/><rect x="220.2" y="691.26" width="21.008" height="21.008" style="fill:#070"/><rect x="192.19" y="719.27" width="21.008" height="21.008" style="fill:#070"/><rect x="248.21" y="691.26" width="21.008" height="21.008" style="fill:#070"/><rect x="220.2" y="719.27" width="21.008" height="21.008" style="fill:#070"/><rect x="248.21" y="719.27" width="21.008" height="21.008" style="fill:#070"/><rect x="304.24" y="775.29" width="21.008" height="21.008" style="fill:#070"/><rect x="304.24" y="803.3" width="21.008" height="21.008" style="fill:#070"/></g></svg>
