<?xml version="1.0" encoding="UTF-8" standalone="no"?>
<!-- Created with Inkscape (http://www.inkscape.org/) -->

<svg
   xmlns:dc="http://purl.org/dc/elements/1.1/"
   xmlns:cc="http://creativecommons.org/ns#"
   xmlns:rdf="http://www.w3.org/1999/02/22-rdf-syntax-ns#"
   xmlns:svg="http://www.w3.org/2000/svg"
   xmlns="http://www.w3.org/2000/svg"
   xmlns:sodipodi="http://sodipodi.sourceforge.net/DTD/sodipodi-0.dtd"
   xmlns:inkscape="http://www.inkscape.org/namespaces/inkscape"
   width="538.35602"
   height="220.82433"
   id="svg5279"
   version="1.1"
   inkscape:version="0.92.1 r"
   sodipodi:docname="logo-white-bg-no-tagline.svg"
   inkscape:export-filename="/home/gjehle/Desktop/expose/images/logo_shack_large.png"
   inkscape:export-xdpi="46.400002"
   inkscape:export-ydpi="46.400002"
   viewBox="0 0 504.70876 207.0228">
  <defs
     id="defs5281">
    <inkscape:perspective
       sodipodi:type="inkscape:persp3d"
       inkscape:vp_x="0 : 526.18108 : 1"
       inkscape:vp_y="0 : 999.99998 : 0"
       inkscape:vp_z="744.09446 : 526.18108 : 1"
       inkscape:persp3d-origin="372.04724 : 350.78738 : 1"
       id="perspective5287" />
    <inkscape:perspective
       id="perspective5190"
       inkscape:persp3d-origin="0.5 : 0.33333332 : 1"
       inkscape:vp_z="0.99999999 : 0.49999999 : 1"
       inkscape:vp_y="0 : 999.99998 : 0"
       inkscape:vp_x="0 : 0.49999999 : 1"
       sodipodi:type="inkscape:persp3d" />
    <inkscape:perspective
       id="perspective12583"
       inkscape:persp3d-origin="0.5 : 0.33333332 : 1"
       inkscape:vp_z="0.99999999 : 0.49999999 : 1"
       inkscape:vp_y="0 : 999.99998 : 0"
       inkscape:vp_x="0 : 0.49999999 : 1"
       sodipodi:type="inkscape:persp3d" />
    <inkscape:perspective
       id="perspective3350"
       inkscape:persp3d-origin="0.5 : 0.33333332 : 1"
       inkscape:vp_z="0.99999999 : 0.49999999 : 1"
       inkscape:vp_y="0 : 999.99998 : 0"
       inkscape:vp_x="0 : 0.49999999 : 1"
       sodipodi:type="inkscape:persp3d" />
  </defs>
  <sodipodi:namedview
     id="base"
     pagecolor="#ffffff"
     bordercolor="#666666"
     borderopacity="1.0"
     inkscape:pageopacity="0"
     inkscape:pageshadow="2"
     inkscape:zoom="0.7"
     inkscape:cx="582.36714"
     inkscape:cy="221.2525"
     inkscape:document-units="px"
     inkscape:current-layer="layer1"
     showgrid="false"
     inkscape:window-width="1916"
     inkscape:window-height="1056"
     inkscape:window-x="0"
     inkscape:window-y="20"
     inkscape:window-maximized="1"
     showguides="true"
     inkscape:guide-bbox="true"
     units="mm"
     fit-margin-top="2"
     fit-margin-left="2"
     fit-margin-right="2"
     fit-margin-bottom="2">
    <sodipodi:guide
       orientation="1,0"
       position="1556.0968,1124.132"
       id="guide9092"
       inkscape:locked="false" />
    <sodipodi:guide
       orientation="1,0"
       position="-126.28072,2591.3292"
       id="guide9135"
       inkscape:locked="false" />
    <sodipodi:guide
       orientation="0,1"
       position="-125.65925,2590.7965"
       id="guide9137"
       inkscape:locked="false" />
    <sodipodi:guide
       orientation="1,0"
       position="4078.0412,-177.63174"
       id="guide9139"
       inkscape:locked="false" />
    <sodipodi:guide
       orientation="0,1"
       position="4113.3965,-210.96678"
       id="guide9141"
       inkscape:locked="false" />
    <sodipodi:guide
       orientation="1,0"
       position="19.867109,9.2440323"
       id="guide2950"
       inkscape:locked="false" />
    <sodipodi:guide
       position="403.08168,4.6061313"
       orientation="0,1"
       id="guide4546"
       inkscape:locked="false" />
  </sodipodi:namedview>
  <metadata
     id="metadata5284">
    <rdf:RDF>
      <cc:Work
         rdf:about="">
        <dc:format>image/svg+xml</dc:format>
        <dc:type
           rdf:resource="http://purl.org/dc/dcmitype/StillImage" />
        <dc:title></dc:title>
      </cc:Work>
    </rdf:RDF>
  </metadata>
  <g
     inkscape:label="Layer 1"
     inkscape:groupmode="layer"
     id="layer1"
     transform="translate(-134.29474,-633.36243)">
    <g
       transform="matrix(1.4005471,0,0,1.4005471,-283.99384,9168.2641)"
       style="fill:#000000;fill-opacity:1;stroke:none"
       id="g6586">
      <path
         inkscape:connector-curvature="0"
         style="font-style:normal;font-weight:normal;font-size:124.27999878px;font-family:'Bitstream Vera Sans';fill:#000000;fill-opacity:1;stroke:none"
         d="m 602.75,-6011.9375 v 62.1875 h 14.90625 v -29.0938 l 21.25,29.0938 h 18.78125 l -25.21875,-31.6875 22.34375,-30.4687 h -17.25 l -19.90625,29.2187 v -29.25 z"
         id="path6588" />
      <path
         inkscape:connector-curvature="0"
         style="font-style:normal;font-weight:normal;font-size:124.63899994px;font-family:'Bitstream Vera Sans';fill:#000000;fill-opacity:1;stroke:none"
         d="m 399.78121,-6032.7628 v 83.125 h 14.9688 v -31.6563 c 0,-12.8378 3.9937,-19.0625 12.5937,-19.0625 8.7248,0 12.7188,5.8505 12.7188,18.9375 v 31.7813 h 14.9375 v -35.1563 c 0,-7.4783 -0.7554,-11.949 -2.625,-15.9375 -3.7392,-7.7276 -12.8378,-13.3437 -21.5625,-13.3437 -6.2319,0 -11.4509,2.106 -16.0625,6.3437 v -25.0312 z"
         id="path6590" />
      <path
         inkscape:connector-curvature="0"
         style="font-style:normal;font-weight:normal;font-size:124.63899994px;font-family:'Bitstream Vera Sans';fill:#000000;fill-opacity:1;stroke:none"
         d="m 372.31251,-6014.0753 c -11.5914,0 -20.8125,8.5935 -20.8125,19.3125 0,5.3594 1.8858,9.8535 5.625,13.2187 3.2406,2.8667 4.6143,3.4756 11.7187,5.8438 8.3508,2.742 10.5938,4.5105 10.5938,8.125 0,3.6145 -2.8862,6.3437 -6.75,6.3437 -4.3624,0 -6.7231,-2.36 -8.2188,-7.9687 h -15.2187 c 0.4986,5.1102 1.0043,7.1024 2.5,10.0937 3.4899,6.8552 11.3371,11.5938 19.8125,11.5938 12.5885,0 22.8125,-9.8472 22.8125,-21.8125 0,-5.6088 -1.8553,-9.9785 -5.8438,-13.3438 -2.4927,-2.1188 -5.9846,-3.5988 -11.4687,-5.3437 l -4.25,-1.375 c -4.8609,-1.6203 -6.3438,-2.8833 -6.3438,-5.75 0,-2.9914 2.4782,-5.2188 5.7188,-5.2188 3.116,0 5.2518,1.8539 5.875,5.3438 h 14.6875 c -0.4986,-10.8436 -9.3447,-19.0625 -20.4375,-19.0625 z"
         id="path6592" />
      <path
         inkscape:connector-curvature="0"
         style="font-style:normal;font-weight:normal;font-size:124.63899994px;font-family:'Bitstream Vera Sans';fill:#000000;fill-opacity:1;stroke:none"
         d="m 491.96875,-6014.0625 c -17.6987,0 -31.15625,14.2104 -31.15625,32.9063 0,19.319 12.83185,33.6562 30.28125,33.6562 7.7276,0 17.2009,-4.2347 21.8125,-9.7188 v 7.5938 H 526.625 v -62.3125 h -13.71875 v 7.8437 c -4.6116,-5.858 -13.0852,-9.9687 -20.9375,-9.9687 z m 1.28125,13.7187 c 0.32212,-0.017 0.64157,0 0.96875,0 10.5943,0 18.3125,8.2197 18.3125,19.3126 0,11.4668 -7.7182,19.8124 -18.3125,19.8124 -10.345,0 -18.4375,-8.4684 -18.4375,-19.1874 0,-10.9877 7.48297,-19.4227 17.46875,-19.9376 z"
         id="path6594" />
      <path
         inkscape:connector-curvature="0"
         style="font-style:normal;font-weight:normal;font-size:124.63899994px;font-family:'Bitstream Vera Sans';fill:#000000;fill-opacity:1;stroke:none"
         d="m 565.62501,-6014.0753 c -18.1973,0 -33.0313,14.834 -33.0313,33.0312 0,18.4466 14.959,33.5313 33.1563,33.5313 5.9827,0 12.7027,-2.0094 17.9375,-5.25 6.3566,-3.9885 10.2274,-8.9614 13.2187,-17.1875 h -16.8125 c -3.4898,5.7334 -8.235,8.7187 -13.8437,8.7187 -10.8436,0 -18.6875,-8.345 -18.6875,-19.5625 0,-11.3421 7.5928,-19.5625 18.0625,-19.5625 6.6058,0 10.7296,2.6126 14.4687,9.0938 h 16.8125 c -1.7449,-5.4841 -2.852,-7.4785 -5.7187,-10.8438 -6.3566,-7.6029 -15.716,-11.9687 -25.5625,-11.9687 z"
         id="path6596" />
    </g>
    <path
       id="path6600"
       d="m 192.19645,747.2757 v 21.00821 h 11.68581 c 0.94981,-7.04767 4.33492,-13.35595 9.3224,-18.16335 v -2.84486 z"
       style="fill:#00be00;fill-opacity:1;stroke:none"
       inkscape:connector-curvature="0" />
    <path
       id="path6602"
       d="m 192.19645,775.28664 v 21.00821 h 21.00821 v -1.79445 c -0.0479,-0.042 -0.0831,-0.0887 -0.13124,-0.13123 a 4.6923018,4.6923018 0 0 1 -0.0437,-0.0437 c -5.4874,-4.93851 -8.62933,-11.60108 -9.27863,-19.03869 h -11.55451 z"
       style="fill:#00be00;fill-opacity:1;stroke:none"
       inkscape:connector-curvature="0" />
    <path
       sodipodi:nodetypes="ccccccc"
       id="path6604"
       d="m 192.19645,803.29759 v 21.0082 h 12.21102 c -2.24681,-4.5183 -3.22706,-8.41527 -3.93904,-15.71239 -0.26362,-2.60612 -0.27429,-2.56836 -0.43674,-5.31248 -3.0881,-0.005 -3.89241,0.012 -7.83532,0.0167 z"
       style="fill:#00be00;fill-opacity:1;stroke:none"
       inkscape:connector-curvature="0" />
    <rect
       y="719.2702"
       x="332.24634"
       height="21.008207"
       width="21.008207"
       id="rect6606"
       style="fill:#00be00;fill-opacity:1;stroke:none" />
    <rect
       style="fill:#00be00;fill-opacity:1;stroke:none"
       id="rect6608"
       width="21.008207"
       height="21.008207"
       x="304.23538"
       y="691.25928" />
    <rect
       style="fill:#00be00;fill-opacity:1;stroke:none"
       id="rect6610"
       width="21.008207"
       height="21.008207"
       x="136.16974"
       y="719.2702" />
    <rect
       style="fill:#00be00;fill-opacity:1;stroke:none"
       id="rect6612"
       width="21.008207"
       height="21.008207"
       x="248.2135"
       y="635.23743" />
    <rect
       y="663.24835"
       x="276.22446"
       height="21.008207"
       width="21.008207"
       id="rect6614"
       style="fill:#00be00;fill-opacity:1;stroke:none" />
    <rect
       style="fill:#00be00;fill-opacity:1;stroke:none"
       id="rect6616"
       width="21.008207"
       height="21.008207"
       x="304.23538"
       y="719.2702" />
    <rect
       style="fill:#00be00;fill-opacity:1;stroke:none"
       id="rect6618"
       width="21.008207"
       height="21.008207"
       x="276.22446"
       y="691.25928" />
    <rect
       y="663.24835"
       x="248.2135"
       height="21.008207"
       width="21.008207"
       id="rect6620"
       style="fill:#00be00;fill-opacity:1;stroke:none" />
    <rect
       style="fill:#00be00;fill-opacity:1;stroke:none"
       id="rect6622"
       width="21.008207"
       height="21.008207"
       x="220.20256"
       y="635.23743" />
    <rect
       y="663.24835"
       x="192.19162"
       height="21.008207"
       width="21.008207"
       id="rect6624"
       style="fill:#00be00;fill-opacity:1;stroke:none" />
    <rect
       style="fill:#00be00;fill-opacity:1;stroke:none"
       id="rect6626"
       width="21.008207"
       height="21.008207"
       x="164.18068"
       y="691.25928" />
    <rect
       y="747.28119"
       x="164.18068"
       height="21.008207"
       width="21.008207"
       id="rect6628"
       style="fill:#00be00;fill-opacity:1;stroke:none" />
    <rect
       style="fill:#00be00;fill-opacity:1;stroke:none"
       id="rect6630"
       width="21.008207"
       height="21.008207"
       x="164.18068"
       y="775.29211" />
    <rect
       y="803.30304"
       x="164.18068"
       height="21.008207"
       width="21.008207"
       id="rect6632"
       style="fill:#00be00;fill-opacity:1;stroke:none" />
    <rect
       style="fill:#00be00;fill-opacity:1;stroke:none"
       id="rect6634"
       width="21.008207"
       height="21.008207"
       x="164.18068"
       y="719.2702" />
    <rect
       y="691.25928"
       x="192.19162"
       height="21.008207"
       width="21.008207"
       id="rect6636"
       style="fill:#00be00;fill-opacity:1;stroke:none" />
    <rect
       style="fill:#00be00;fill-opacity:1;stroke:none"
       id="rect6638"
       width="21.008207"
       height="21.008207"
       x="220.20256"
       y="663.24835" />
    <rect
       y="691.25928"
       x="220.20256"
       height="21.008207"
       width="21.008207"
       id="rect6640"
       style="fill:#00be00;fill-opacity:1;stroke:none" />
    <rect
       style="fill:#00be00;fill-opacity:1;stroke:none"
       id="rect6642"
       width="21.008207"
       height="21.008207"
       x="192.19162"
       y="719.2702" />
    <rect
       style="fill:#00be00;fill-opacity:1;stroke:none"
       id="rect6644"
       width="21.008207"
       height="21.008207"
       x="248.2135"
       y="691.25928" />
    <rect
       y="719.2702"
       x="220.20256"
       height="21.008207"
       width="21.008207"
       id="rect6646"
       style="fill:#00be00;fill-opacity:1;stroke:none" />
    <rect
       y="719.2702"
       x="248.2135"
       height="21.008207"
       width="21.008207"
       id="rect6648"
       style="fill:#00be00;fill-opacity:1;stroke:none" />
    <rect
       y="775.29211"
       x="304.23538"
       height="21.008207"
       width="21.008207"
       id="rect6650"
       style="fill:#00be00;fill-opacity:1;stroke:none" />
    <rect
       style="fill:#00be00;fill-opacity:1;stroke:none"
       id="rect6652"
       width="21.008207"
       height="21.008207"
       x="304.23538"
       y="803.30304" />
  </g>
</svg>
